<?xml version="1.0" encoding="utf-8"?>
<!-- Generator: Adobe Illustrator 17.1.0, SVG Export Plug-In . SVG Version: 6.00 Build 0)  -->
<!DOCTYPE svg PUBLIC "-//W3C//DTD SVG 1.1//EN" "http://www.w3.org/Graphics/SVG/1.1/DTD/svg11.dtd">
<svg version="1.1" id="Layer_1" xmlns:sketch="http://www.bohemiancoding.com/sketch/ns"
	 xmlns="http://www.w3.org/2000/svg" xmlns:xlink="http://www.w3.org/1999/xlink" x="0px" y="0px" viewBox="3.7 1.6 47.3 16.3"
	 enable-background="new 3.7 1.6 47.3 16.3" xml:space="preserve">
<title>logo copy</title>
<desc>Created with Sketch.</desc>
<g id="homeContent" sketch:type="MSPage">
	<g id="homeDesktop" transform="translate(-119.000000, -8363.000000)" sketch:type="MSArtboardGroup">
		<g id="FOOTER" transform="translate(0.000000, 8298.000000)" sketch:type="MSLayerGroup">
			<g id="logo-copy" transform="translate(119.000000, 65.000000)" sketch:type="MSShapeGroup">
				<path id="Fill-1" fill="#FFFFFF" d="M15.7,9.9c0-3.3,1.2-5.4,2.7-5.6c-1.5-1.7-4-2.7-6.3-2.7c-2.5,0-4.8,1-6.3,2.7
					c1.5,0.3,2,1.5,2,3.3H6C6,6.5,5.7,5.9,5,5.9c-0.3,0-0.5,0.2-0.6,0.4c0,0.1-0.1,0.1-0.1,0.1C4.3,6.6,4.2,6.8,4.2,6.9
					c0,2.2,3.9,2.1,3.9,5.6c0,1.3-1.1,2.6-2.3,2.6c1.6,1.7,3.8,2.7,6.3,2.7c2.4,0,4.6-1,6.2-2.6C16.9,14.9,15.7,13,15.7,9.9
					L15.7,9.9z M14.9,15.2h-2v-4.6h-2.1v4.6H8.9V4.5h1.9v4.4h2.1V4.5h2V15.2L14.9,15.2z"/>
				<path id="Fill-2" fill="#FFFFFF" d="M5.3,13.5c0.5,0,0.9-0.5,0.9-1.2c0-1.3-1.3-1.6-2.6-2.8V10C3.7,12.1,4.5,13.5,5.3,13.5"/>
				<path id="Fill-3" fill="#FFFFFF" d="M17.6,9.7c0-1.8,0.5-3.6,1.5-3.6c1.2,0,1.5,2.8,1.5,3.7c0,1.9-0.6,3.7-1.5,3.7
					C18.1,13.4,17.6,11.6,17.6,9.7"/>
				<path id="Fill-4" fill="#FFFFFF" d="M37,4.7h-8.2L28,10.8l-0.9-6.1h-1.8l-0.9,6.1h-0.1l-0.7-6.1h-1.8l1.5,10.4H25l1-6.6h0.1
					l0.9,6.6h1.8l1.2-8.8h1.7v8.8h2V6.3h1.8v8.8h2V4.7H37"/>
				<path id="Fill-5" fill="#FFFFFF" d="M38.4,4.7H41l0.9,5.4l0.9-5.4h2.6v10.4h-1.8V7.5l-1.3,7.6h-1.1l-1.3-7.6h-0.1v7.6h-1.5V4.7"
					/>
				<path id="Fill-6" fill="#FFFFFF" d="M46.4,4.7h4.5v1.6h-2.5v2.6h1.9v1.7h-1.9v2.8H51v1.6h-4.6V4.7"/>
			</g>
		</g>
	</g>
</g>
</svg>
